Patient4_TMGait_0pt7_01_right_30_EMG.mot
version=1
nRows=41
nColumns=33
inDegrees=no
endheader
time	1LAddLong	2LGlutMax	3LGlutMed	4LIliopsoas	5LSemiMemb	6LBicFemLong	7LRecFem	8LVastMed	9LVastLat	10LGasMed	11LTibAnt	12lTibPost	13LPeroneusLong	14LSol	15LExtDigLong	16LFlexDigLong	17RAddLong	18RGlutMax	19RGlutMed	20RIliopsoas	21RSemiMemb	22RBicFemLong	23RRecFem	24RVastMed	25RVastLat	26RGasMed	27RTibAnt	28RTibPost	29RPeroneusLong	30RSol	31RExtDigLong	32RFlexDigLong
34.445	0.010681	-0.62775	0.013123	0.005493	0.027771	0.005341	-0.11337	-0.007172	0.015717	-0.21668	-0.022125	-0.47318	0.00351	-1.5137	0.044403	-0.075378	0.049591	-1.2665	-0.46493	-0.028229	0.063171	0.5571	0.74738	0.43091	-0.56046	-0.062256	0.094604	-0.019531	-0.22446	-0.015259	-0.002136	0.004883
34.446	0.001221	-0.53314	0.013275	-0.004578	0.020142	0.016479	0.001831	-0.003662	-0.021667	-0.4924	-0.004883	-0.22201	0.012207	0.25971	0.078278	0.061646	0.062714	-1.3257	-0.69565	0.004578	-0.023804	0.70404	0.10223	0.36148	-0.67123	-0.020447	0.45944	-0.021057	-0.52872	-0.16693	-0.002899	-0.006409
34.447	-0.002136	-0.52658	0.01709	0.00412	0.023193	0.005493	0.00946	-0.000763	-0.029755	-0.54565	0.011444	-0.018921	-0.067902	0.52582	0.006714	0.005646	0.1886	-1.4153	-0.15945	0.055847	-0.06012	0.69916	-0.55756	-0.50446	-0.42404	0.019073	0.45319	-0.03067	0.89416	-0.21622	0.000153	0.005035
34.448	-0.001526	-0.54764	0.018005	0.002747	0.032196	0.00473	0.055389	-0.00473	-0.021057	-0.51895	0.016785	-0.033264	-0.17532	0.21851	-0.056458	0.1004	0.29831	-1.4352	0.55786	-0.044098	-0.15839	0.60532	-0.66238	-1.1894	-0.28168	0.039368	0.43152	-0.034027	0.64606	-0.62592	-0.004578	0.014496
34.449	0.005646	-0.50278	0.01297	0.004425	0.025635	0.007629	0.10086	-0.00473	0.001678	-0.46448	0.037842	-0.043488	-0.13351	0.071106	-0.031586	-0.060577	0.2211	-1.5385	0.64133	-0.026245	-0.3363	0.51315	-0.21118	-0.91049	-0.18784	0.035553	0.034943	-0.036469	-0.22629	-0.78659	-0.013885	0.015106
34.45	0.005341	-0.49728	0.018921	0.001526	0.024872	0.019073	0.1239	-0.005493	-0.002441	-0.15823	0.031738	-0.081635	-0.2803	0.4538	-0.002136	0.051727	0.097809	-1.6582	0.67932	-0.001678	0.13672	0.28107	0.11124	-0.42465	-0.10468	0.013733	0.03067	-0.031738	-1.0225	-0.64514	-0.010681	-0.000763
34.451	-0.001373	-0.50888	0.006256	0.001984	0.032349	0.010376	0.12802	-0.013885	-0.022888	-0.046387	0.02533	-0.088959	0.049591	0.90363	0.00351	0.23193	-0.002441	-1.6447	0.27771	0.031891	0.72281	0.006714	0.35751	-0.32211	-0.054779	0.004425	0.28625	-0.029297	-0.18097	-0.44266	-0.005798	-0.001831
34.452	0.001984	-0.50827	0.020142	-0.00824	0.031128	0.010834	0.13062	-0.007172	-0.02121	-0.026245	-0.015869	-0.067902	0.2095	1.2645	-0.005341	-0.089111	-0.098114	-1.5886	0.17258	0.04837	0.43732	-0.094757	0.45715	-0.028229	0.22766	0	-0.080414	-0.025177	1.2535	-0.30884	-0.00351	0.008392
34.453	-0.003967	-0.47363	0.009155	0.006561	0.020752	-0.007477	0.075989	0.005188	-0.024109	-0.010834	-0.021667	-0.041962	-0.34973	1.259	-0.007019	-0.31632	-0.036621	-1.7467	-0.13657	-0.033264	0.16571	-0.36835	0.83084	0.051117	0.23834	0.010071	-0.21454	-0.015411	2.3329	-0.16266	-0.005341	0.008698
34.454	0.001831	-0.42954	-0.015717	0.012665	0.024109	-0.003815	-0.002441	-0.003052	0.026398	0.1619	0.013275	-0.026398	-0.72769	0.78461	-0.04776	0.15839	-0.024261	-1.8286	-0.33066	-0.17288	0.097656	-0.90164	0.90973	0.18005	0.042877	0.019379	-1.2279	-0.01236	-0.58792	-0.19699	-0.004883	0.02533
34.455	-0.008087	-0.3743	-0.030365	0.0177	0.018005	-0.004272	0.049286	-0.010681	0.06958	0.38849	0.022583	0.20142	-0.61188	0.27268	-0.059204	0.20462	0.001984	-1.9406	-0.37598	-0.14297	0.14999	-0.94666	0.51819	0.12299	0.11948	0.013275	-1.1897	-0.014191	-1.4603	-0.11398	-0.001221	0.011902
34.456	-0.004425	-0.31982	-0.032196	0.007019	0.031891	-0.00351	0.13443	-0.013123	0.081329	0.50797	0.012207	0.11368	-0.17059	0.20401	-0.006409	0.17487	-0.03418	-2.0047	0.013275	-0.057068	0.32303	-0.55618	-0.06958	0.25345	0.29114	0.006714	-0.58853	-0.01358	0.33218	0.13931	-0.000458	0.014801
34.457	0.001984	-0.28671	0	-0.000305	0.029602	0.014191	0.13382	-0.005951	0.04837	0.32044	0.016632	0.038605	0.010071	0.14984	-0.015717	0.16846	0.006409	-2.016	0.72311	-0.020142	0.336	-0.43625	-0.25726	0.079498	0.21927	0.005646	-0.38238	-0.012512	-1.1183	0.24979	-0.005188	-0.001678
34.458	-0.00885	-0.21973	0.001068	0.006409	0.029602	0.023499	0.21378	-0.006561	0.035553	0.46707	-0.066376	-0.33737	-0.24811	-0.34729	-0.076904	-0.085602	0.032196	-2.0041	1.2442	0.075836	0.14786	-0.20752	0.082397	0.04776	0.096436	-0.003357	-0.043335	-0.010071	-0.91644	0.27054	-0.003052	0.004883
34.459	-0.014954	-0.22873	-0.036926	-0.005035	0.023499	0.006409	0.31052	-0.010223	0.029144	0.11093	-0.001068	-0.39948	-0.3833	-0.20081	-0.084381	-0.15518	-0.020599	-1.998	1.331	0.071564	0.001221	-0.032043	0.15991	0.026855	-0.021515	-0.015869	0.25559	-0.011139	-0.76096	0.2626	-0.005341	0.002594
34.46	-0.022888	-0.23727	-0.057068	-0.015259	0.015869	-0.006714	0.39551	-0.010834	0.029602	-0.81085	-0.010529	0.63095	-0.11551	0.49728	-0.050354	0.27939	-0.09079	-1.9974	-0.038605	-0.086517	-0.20996	-0.020294	0.2562	0.19379	-0.18021	-0.028381	0.036926	-0.014191	0.12924	0.28168	-0.012207	-0.003662
34.461	-0.01358	-0.19134	-0.067139	-0.018616	0.010071	-0.048523	0.38498	-0.00473	0.027161	-0.79636	0.014496	-0.099182	0.066986	0.12329	-0.10422	0.36346	-0.10727	-1.9746	-0.21469	-0.32806	-0.028381	-0.014954	-0.085907	0.015564	-0.23239	-0.026398	-0.2356	-0.014191	0.13565	0.3363	-0.004272	-0.00412
34.462	-0.019684	-0.1738	-0.099945	-0.013733	0.023499	-0.091095	0.35461	-0.009003	0.039063	-0.61478	0.020599	-0.22507	0.095673	-0.16754	-0.079803	-0.018158	-0.11749	-2.0509	-0.82596	-0.33691	0.1503	0.17517	-0.64987	0.24475	0.049591	-0.060425	-0.080872	-0.018921	0.85144	0.2742	-0.005341	0.00412
34.463	-0.014038	-0.17807	-0.088959	0.034485	0.023346	-0.07843	0.40924	-0.006561	0.039673	-0.63019	-0.002136	-0.10971	0.058441	-0.39825	-0.063782	-0.019989	-0.13336	-2.0026	-0.74448	-0.18784	0.18005	0.11322	-0.51651	0.32288	0.63889	-0.059204	0.068817	-0.02533	-0.043793	0.19913	-0.004272	0.001526
34.464	-0.006256	-0.12497	-0.078735	0.048065	0.028381	-0.068054	0.44708	0	0.055389	-0.75302	0.00885	-0.011139	-0.04425	-0.16998	-0.041809	0.038605	-0.094147	-1.9508	-0.038757	0.1535	0.060577	-0.14801	-0.003052	0.026245	0.52246	-0.043793	0.32089	-0.03952	0.041046	0.24246	-0.003967	0.003662
34.465	-0.010834	-0.074921	-0.10147	0.031128	0.02594	-0.033264	0.42709	0.007935	0.086365	-0.62454	0.019073	0.040131	-0.20111	0.27664	0.000458	0.081635	-0.088501	-1.929	-0.70023	0.55344	-0.045776	-0.37094	0.35416	-0.27268	0.087128	-0.010376	0.27512	-0.036163	-0.21316	0.27206	-0.004883	0.000916
34.466	-0.007935	-0.054626	-0.13397	0.005493	0.023956	0.0354	0.43564	0.013275	0.093689	-0.38757	0.004272	0.046387	-0.2211	0.2243	0.017395	0.2385	-0.012817	-1.9356	-0.94681	0.42679	0.095215	-0.65155	0.23865	-0.43945	-0.31036	0.014954	0.058441	0.082092	-1.4235	0.24078	-0.001678	-0.00885
34.467	-0.005646	-0.007935	-0.13458	0.005341	0.016174	0.075226	0.44052	0.020294	0.084839	-0.22461	0.018463	0.015411	-0.08194	-0.070953	-0.018311	0.053253	0.046844	-1.8173	-0.98343	0.13947	0.085602	-0.74188	0.037384	-0.32684	-0.36743	0.009308	0.15625	0.043793	0.67764	0.37186	-0.002747	-0.006256
34.468	-0.002899	0.077972	-0.11475	-0.001526	0.013733	0.072937	0.40863	0.022583	0.092926	0.038757	0.019531	0.18005	0.009613	-0.24689	0.006256	0.082092	0.098877	-1.7294	-0.59006	-0.11292	-0.15625	-0.71549	-0.046539	-0.10269	-0.2655	0.016937	-0.10208	-0.000305	1.4629	0.32577	-0.004578	-0.005035
34.469	-0.005798	0.094452	-0.10132	0.011292	0.016785	0.071259	0.35553	0.020599	0.097809	0.42954	0.014038	-0.070953	0.11688	-0.076294	0.063324	0.050659	0.1593	-1.5341	1.2311	-0.21774	-0.14984	-0.72205	0.074768	-0.010529	-0.39017	0.015411	-0.31784	0.002289	0.37949	0.071869	-0.003357	-0.006104
34.47	0.00061	0.073853	-0.094757	0.007172	0.020752	0.048065	0.25833	0.010529	0.1001	0.65781	0.018158	0.12665	0.027161	-0.070038	0.06424	0.15137	0.19409	-1.5363	1.4476	-0.071716	-0.10208	-0.49439	-0.057678	0.013733	-0.43045	0.005035	0.015564	0.057526	-0.44174	0.064087	-0.007935	-0.010376
34.471	-0.001831	0.075684	-0.092468	0.009918	0.018463	0.066071	0.23575	0.019531	0.12711	-0.18173	0.015259	1.1047	-0.18662	0.018768	0.062714	-0.15228	0.20462	-1.5399	0.32715	0.087585	-0.19089	-0.45395	-0.16007	0.14862	-0.13412	0.01236	0.018158	0.017395	0.33005	-0.32715	-0.002136	-0.002594
34.472	0.011139	0.16083	-0.061798	0.002899	0.01709	0.075836	0.24002	0.018158	0.16022	-1.3409	-0.001526	-0.31906	-0.37231	-0.028381	0.071869	0.098572	0.21347	-1.2552	-0.09201	0.072784	-0.14206	-0.44525	-0.12299	0.040741	0.37964	0.00061	0.29327	0.001526	-0.022736	-0.4454	-0.005035	-0.024719
34.473	0.00351	0.23224	-0.049133	0.013885	0.014496	0.103	0.26352	0.025024	0.16464	-0.82947	0.003967	0.42343	-0.72571	-0.42465	0.024872	0.040588	0.18173	-0.95306	0.19012	0.112	-0.21545	-0.42648	0.13931	-0.10925	0.60974	-0.006561	0.58853	0.001373	0.7132	-0.53116	-0.00351	-0.005798
34.474	0.000305	0.27756	-0.042419	0.023804	0.013123	0.096588	0.20905	0.020447	0.13733	0.12619	0.016479	0.3421	-0.76126	-0.58411	-0.045319	-0.79697	0.1294	-0.70847	-0.22873	0.070953	-0.62286	-0.21088	0.17059	-0.022125	0.31372	0.011597	0.48065	-0.009003	1.8903	-0.60944	-0.00061	0.002289
34.475	-0.007629	0.37125	-0.040283	-0.002289	0.016022	0.076447	0.18555	0.021515	0.13428	0.77866	0.00946	0.069427	-0.42618	-0.15945	-0.043793	0.07431	0.055389	-0.52597	0.31982	-0.048676	-1.1964	0.02182	0.11627	0.3746	0.002594	0.019379	0.36484	0.000458	2.6535	-0.47638	-0.006104	-0.00824
34.476	-0.004425	0.4657	-0.036316	-0.009003	0.00946	0.082245	0.28153	0.016632	0.14725	0.62653	-0.006714	0.05249	0.42999	0.58289	-0.10849	0.5806	-0.0914	-0.42374	0.093536	-0.10849	0.009613	0.16953	0.25665	0.62393	-0.23422	0.005646	-0.80399	-0.006561	-1.1996	-0.37903	-0.005646	-0.005341
34.477	-0.008698	0.57587	-0.022125	-0.011749	0.012207	0.042267	0.28915	0.012512	0.16327	0.33035	-0.022736	-0.20233	0.49088	0.023804	-0.058746	0.31799	-0.060425	-0.1889	0.072174	-0.04303	1.0295	-0.073853	0.50598	0.61981	0.009155	-0.003357	-0.64331	-0.009766	-2.3393	-0.23987	-0.005646	-0.004883
34.478	-0.010681	0.62531	-0.006409	0.001221	0.006714	0.050812	0.27664	0.006866	0.18829	-0.061646	0.002747	-0.26184	0.71182	-0.054474	0.049744	0.2771	-0.034943	-0.003815	0.39963	0.019989	0.85693	-0.48309	0.59708	0.62149	0.1738	0.007782	0.40344	-0.002136	-1.3002	-0.061035	-0.005341	-0.00412
34.479	-0.009766	0.72372	-0.009613	-0.002136	0.0177	0.046539	0.37369	0.002594	0.21393	-0.22842	0.00412	-0.14496	0.34393	0.68603	0.063324	-0.2092	-0.033875	0.14923	-0.070496	0.091248	0.35934	-0.74722	0.60165	0.50476	0.2327	0.00946	0.85968	-0.005798	-0.69961	0.065918	-0.00473	-0.007019
34.48	-0.022583	0.77225	-0.027771	-0.003357	0.009308	0.042572	0.4303	0.00473	0.20325	-0.71045	0.005493	0.061798	-0.32425	-0.36392	-0.037079	-0.10208	-0.033112	0.18524	-0.13855	-0.002747	-0.005951	-0.95291	0.32593	0.18326	0.44174	0.003204	0.15717	-0.002594	-1.0156	0.098419	-0.007324	-0.003662
34.481	-0.010681	0.84518	-0.007324	0.006866	0.006866	0.041199	0.38254	-0.002441	0.18265	-0.74005	0.002899	-0.062714	-0.38223	-0.54367	-0.067596	0.5452	-0.16052	0.22675	0.14633	-0.11505	-0.44617	-0.64285	-0.21423	-0.077667	0.70587	0.000458	-0.67566	-0.000458	-1.1839	0.21179	-0.009918	-0.004272
34.482	-0.01236	0.90302	-0.011902	0.015411	0.007629	0.030975	0.2919	-0.003052	0.18631	-0.3096	-0.003967	-0.052185	-0.26718	-0.20447	-0.10895	0.34119	-0.24048	0.3569	-0.025177	-0.086365	-0.15396	-0.3244	-0.94589	0.069275	0.67627	-0.000763	-1.2875	-0.003204	0.91232	0.32394	-0.00473	-0.008087
34.483	-0.020142	0.98053	0.001526	-0.003662	0.010986	0.014191	0.18173	0.006104	0.19653	-0.22492	-0.021362	0.056305	-0.3006	-0.40726	-0.070801	-0.28046	-0.17273	0.53574	0.21713	-0.045471	0.35339	-0.24399	-0.86304	0.047607	-0.075378	-0.005798	-0.96512	0.000916	1.9708	0.52139	-0.001831	0.001678
34.484	-0.003204	1.0672	0.018768	0.005646	0.013275	0.009308	0.095367	0.004578	0.18677	-0.15564	-0.025635	0.046997	0.1088	-0.24445	-0.043182	-0.2272	-0.12756	0.72235	0.53467	-0.11215	0.30701	-0.41626	-0.43594	-0.11902	-0.70313	-0.008087	-0.26886	0.001221	0.06134	0.35431	-0.001831	-0.007324
34.485	-0.009003	1.0994	0.028534	0.006256	0.011139	0.013733	0.087738	0.022278	0.16617	0.028992	-0.004883	0.021057	0.14786	0.14954	-0.0737	-0.1564	-0.080261	0.86853	-0.28763	-0.10101	0.16083	-0.84	-0.13748	-0.18768	-0.71838	-0.009766	0.17471	-0.001373	-1.5657	0.27725	-0.009155	-0.01236
